<svg xmlns="http://www.w3.org/2000/svg" xmlns:xlink="http://www.w3.org/1999/xlink" width="860" height="232" viewBox="0 0 860 232" role="img" aria-label="05 · APP DEVELOPMENT: Built for the pocket."><title>05 · APP DEVELOPMENT: Built for the pocket.</title><defs><path id="f5-zero" d="M300 -12Q234 -12 185.5 12.5Q137 37 105.5 83.0Q74 129 59.0 196.0Q44 263 44 349Q44 434 59.0 501.5Q74 569 105.5 615.0Q137 661 185.5 685.5Q234 710 300 710Q366 710 414.5 685.5Q463 661 494.5 615.0Q526 569 541.0 501.5Q556 434 556 349Q556 263 541.0 196.0Q526 129 494.5 83.0Q463 37 414.5 12.5Q366 -12 300 -12ZM300 80Q376 80 408.5 136.5Q441 193 441 289V409Q441 505 408.5 561.5Q376 618 300 618Q262 618 235.0 603.5Q208 589 191.0 561.5Q174 534 166.5 495.5Q159 457 159 409V289Q159 241 166.5 202.5Q174 164 191.0 136.5Q208 109 235.0 94.5Q262 80 300 80ZM300 290Q265 290 251.5 304.0Q238 318 238 338V360Q238 380 251.5 394.0Q265 408 300 408Q335 408 348.5 394.0Q362 380 362 360V338Q362 318 348.5 304.0Q335 290 300 290Z"/><path id="f5-five" d="M511 601H194L176 353H184Q208 394 242.0 418.5Q276 443 335 443Q380 443 418.5 428.0Q457 413 485.5 385.0Q514 357 530.5 316.5Q547 276 547 225Q547 173 530.0 129.5Q513 86 481.0 54.5Q449 23 402.0 5.5Q355 -12 295 -12Q248 -12 211.5 -1.5Q175 9 146.5 26.5Q118 44 97.0 66.5Q76 89 60 113L142 177Q155 157 169.5 139.5Q184 122 202.0 109.0Q220 96 243.5 89.0Q267 82 297 82Q362 82 396.0 117.5Q430 153 430 214V222Q430 283 395.5 317.0Q361 351 297 351Q250 351 223.0 334.0Q196 317 176 296L83 309L109 698H511Z"/><path id="f5-periodcentered" d="M300 222Q252 222 232.5 242.0Q213 262 213 291V317Q213 346 232.5 366.0Q252 386 300 386Q348 386 367.5 366.0Q387 346 387 317V291Q387 262 367.5 242.0Q348 222 300 222Z"/><path id="f5-A" d="M462 0 409 186H187L134 0H20L224 698H377L581 0ZM302 585H294L208 279H388Z"/><path id="f5-P" d="M84 0V698H345Q445 698 497.5 642.0Q550 586 550 488Q550 390 497.5 334.0Q445 278 345 278H196V0ZM196 371H328Q432 371 432 467V510Q432 605 328 605H196Z"/><path id="f5-D" d="M82 698H290Q424 698 488.5 609.0Q553 520 553 349Q553 178 488.5 89.0Q424 0 290 0H82ZM283 92Q360 92 397.5 143.5Q435 195 435 291V407Q435 503 397.5 554.5Q360 606 283 606H193V92Z"/><path id="f5-E" d="M86 0V698H523V604H198V401H511V307H198V94H523V0Z"/><path id="f5-V" d="M222 0 25 698H146L238 346L299 109H305L366 346L459 698H575L378 0Z"/><path id="f5-L" d="M108 0V698H220V94H538V0Z"/><path id="f5-O" d="M300 -12Q234 -12 185.5 12.5Q137 37 105.5 83.0Q74 129 59.0 196.0Q44 263 44 349Q44 434 59.0 501.5Q74 569 105.5 615.0Q137 661 185.5 685.5Q234 710 300 710Q366 710 414.5 685.5Q463 661 494.5 615.0Q526 569 541.0 501.5Q556 434 556 349Q556 263 541.0 196.0Q526 129 494.5 83.0Q463 37 414.5 12.5Q366 -12 300 -12ZM300 81Q375 81 406.0 137.5Q437 194 437 291V408Q437 504 406.0 560.5Q375 617 300 617Q225 617 194.0 560.5Q163 504 163 408V290Q163 194 194.0 137.5Q225 81 300 81Z"/><path id="f5-M" d="M445 334 448 544H440L300 185L160 544H152L155 334V0H56V698H193L300 421H307L415 698H544V0H445Z"/><path id="f5-N" d="M179 537H170V0H72V698H216L421 161H430V698H528V0H384Z"/><path id="f5-T" d="M356 604V0H244V604H25V698H575V604Z"/><path id="f7-B" d="M712 298Q712 164 629 84Q541 -1 383 -1Q354 -1 295.0 1.0Q236 3 227 3Q205 3 164.5 1.0Q124 -1 115 -1Q86 -1 74.5 3.0Q63 7 64 22Q64 38 95.5 46.0Q127 54 134.5 62.0Q142 70 146.0 87.5Q150 105 150 123V811Q150 820 150 825Q150 833 150 837Q150 866 147.5 880.0Q145 894 133.0 906.5Q121 919 93 919H65Q50 919 46 931Q38 962 138.5 978.5Q239 995 350 995Q473 995 559 944Q657 886 657 783Q657 698 601.5 634.5Q546 571 463 554Q712 508 712 298ZM545 767Q545 851 497 903Q445 959 352 959Q315 959 289 945Q256 927 256 897V570Q272 566 287.5 565.0Q303 564 326 564Q436 564 493 622Q545 675 545 767ZM599 285Q599 390 540 456Q476 528 360 528Q328 528 302.5 525.0Q277 522 258 516V171Q258 111 282 79Q312 38 380 38Q480 38 542 113Q599 182 599 285Z"/><path id="f7-u" d="M681 70Q684 54 658.0 40.5Q632 27 607 15Q582 1 568 -6Q546 -17 537 -17Q523 -15 523 2V89Q523 100 513 98Q510 98 504 93Q500 90 493 85L456 54Q423 24 383.5 5.0Q344 -14 303 -14Q226 -14 180.0 42.5Q134 99 134 177V623Q134 638 133.0 646.0Q132 654 124.5 660.0Q117 666 110.0 667.5Q103 669 87 669H68Q58 669 54 674Q50 679 50 688Q50 710 76 710H221Q229 710 232 706Q237 700 237 685V210Q237 120 269 87Q296 59 352 59Q403 59 459.5 100.5Q516 142 516 180V614Q516 632 513.5 641.5Q511 651 501.5 658.0Q492 665 481.5 666.5Q471 668 453 668Q440 668 430.5 673.0Q421 678 421 691Q421 710 449 710H588Q601 710 608.0 703.5Q615 697 615 687V139Q615 121 618.0 110.0Q621 99 632 92Q636 89 657.0 85.5Q678 82 681 70Z"/><path id="f7-i" d="M243 903Q243 871 228.0 846.5Q213 822 186 822Q159 822 143.0 846.0Q127 870 127 901Q127 934 141.5 958.0Q156 982 184 982Q212 982 227.5 958.0Q243 934 243 903ZM327 19Q327 10 319.0 4.5Q311 -1 289 -1Q274 -1 234.5 1.0Q195 3 186 3Q159 3 141.0 3.0Q123 3 87 -1Q82 -2 74 -2Q52 -2 52 16Q50 33 72.0 38.0Q94 43 116 48Q129 54 132.5 67.0Q136 80 136 99V552Q136 574 134.5 582.5Q133 591 123.5 601.5Q114 612 87.5 612.5Q61 613 57 623Q50 640 81.5 654.5Q113 669 143 682Q170 697 190 716Q205 730 221 745Q227 746 231.5 734.0Q236 722 236 708V114Q236 84 239.5 72.5Q243 61 252 53Q266 41 296.5 39.5Q327 38 327 19Z"/><path id="f7-l" d="M349 19Q349 7 335.5 3.0Q322 -1 298 -1Q283 -1 243.5 1.0Q204 3 195 3Q175 3 150.0 1.5Q125 0 95 -1Q87 -2 83 -2Q67 -2 57.5 3.0Q48 8 48 20Q48 38 82.5 41.0Q117 44 127.5 49.0Q138 54 141.5 67.0Q145 80 145 99V892Q145 913 143.5 921.5Q142 930 132 940Q127 945 112 945Q99 944 93 944Q74 944 70 955Q63 972 93.5 985.0Q124 998 153 1011Q155 1012 198 1039Q225 1056 233 1054Q238 1053 241 1048Q245 1042 245 1029V114Q245 91 248.5 77.5Q252 64 264 55Q276 44 312.5 42.0Q349 40 349 19Z"/><path id="f7-t" d="M391 109Q366 50 333 19Q294 -17 244 -17Q183 -17 153 40Q129 85 129 147V619Q129 631 124.0 637.0Q119 643 111 643H70Q62 643 57 647Q52 651 51 657Q49 672 69 696Q111 745 130.5 775.5Q150 806 182 868Q198 900 212 900Q229 902 229 886V718Q229 708 234 704Q237 701 242 701Q247 701 253 701H344Q356 701 359 698Q363 695 363 683V659L360 648Q357 643 343 643H249Q239 643 234.0 638.0Q229 633 229 623V147Q229 113 244.5 85.5Q260 58 287 58Q308 58 328.0 79.5Q348 101 363 133Q371 149 386 146Q395 145 395 130Q395 119 391 109Z"/><path id="f7-f" d="M465 977 453 912Q449 892 442.0 879.0Q435 866 420 866Q406 866 398.5 877.5Q391 889 385 910L366 971Q361 989 350.0 1002.5Q339 1016 328 1014Q289 1010 266 938Q249 884 249 837L246 743Q246 727 254.5 721.0Q263 715 275 715H385Q393 715 397 711L400 702V673L398 664Q393 658 384 658H279Q265 658 257 646Q253 639 251.5 630.5Q250 622 250 606V113Q250 76 267 62Q279 51 322.0 47.0Q365 43 365 23Q365 6 340 1Q330 -1 298 -1Q278 -1 247.0 1.0Q216 3 213 3Q192 3 159.0 1.0Q126 -1 107 -1Q94 -1 87 -1Q66 -1 54.5 3.0Q43 7 43 20Q41 42 79.5 46.5Q118 51 128.5 60.5Q139 70 143.0 88.0Q147 106 147 130V618Q147 644 134.5 653.5Q122 663 108 663H88Q67 663 66 679Q66 688 73.0 696.0Q80 704 89 707Q109 713 122.0 728.0Q135 743 142 765Q145 775 151.5 821.0Q158 867 169 896Q195 969 241 1010Q292 1055 361 1055Q397 1055 431.5 1035.5Q466 1016 466 986Q466 980 465 977Z"/><path id="f7-o" d="M616 365Q616 219 544 108Q465 -14 343 -14Q215 -14 128 106Q46 219 46 367Q46 509 123 615Q206 729 333 729Q456 729 539 614Q616 507 616 365ZM504 361Q504 486 462 583Q413 696 331 696Q247 696 199 593Q159 507 159 387Q159 241 195 146Q242 22 341 22Q425 22 468 136Q504 231 504 361Z"/><path id="f7-r" d="M486 631Q486 592 474 568Q459 538 428 538Q401 538 383.5 555.5Q366 573 366 599Q364 613 363 628Q359 644 344 644Q322 644 301 617Q284 595 271.5 562.0Q259 529 251.0 482.0Q243 435 243 394V114Q243 92 246.5 79.5Q250 67 262.0 56.5Q274 46 314.5 43.5Q355 41 355 20Q356 10 344.5 4.5Q333 -1 299 -1Q283 -1 242.5 1.0Q202 3 193 3Q173 3 148.0 1.5Q123 0 93 -1Q85 -2 81 -2Q66 -2 58.0 2.0Q50 6 50 17Q49 31 65 36Q94 42 123 48Q136 54 139.5 67.0Q143 80 143 99V545Q143 561 140.5 571.5Q138 582 129.5 594.0Q121 606 94.5 606.0Q68 606 64 616Q57 633 105 653Q136 666 148 676Q173 697 196 724Q210 741 216 742Q222 743 228.0 733.0Q234 723 234 713V579L259 620Q292 674 315 696Q350 730 396 730Q438 730 462.0 701.0Q486 672 486 631Z"/><path id="f7-h" d="M715 22Q716 7 705.5 3.0Q695 -1 677 -1Q659 -1 623.0 1.0Q587 3 581 3Q560 3 518.0 1.0Q476 -1 473 -1Q460 -1 452.0 3.5Q444 8 444 20Q444 38 480.5 42.0Q517 46 525.5 59.5Q534 73 534 94V522Q534 583 496.0 625.0Q458 667 395 667Q330 667 283.0 620.0Q236 573 236 506V120Q236 98 241.0 81.0Q246 64 258.5 54.0Q271 44 302.5 40.5Q334 37 334 16Q334 4 325.5 1.5Q317 -1 290 -1Q276 -1 236.5 1.0Q197 3 187 3Q128 3 88 -1Q83 -2 73 -2Q61 -2 53.5 2.5Q46 7 46 19Q46 36 70.0 40.5Q94 45 117 50Q131 56 134.0 66.5Q137 77 137 99V882Q137 913 112 934Q106 939 78.5 941.0Q51 943 47 954Q40 972 74.5 985.0Q109 998 142 1011Q143 1012 187 1040Q213 1057 221 1055Q229 1054 233.0 1046.5Q237 1039 237 1029V671Q237 649 244 645Q250 643 254 645Q260 649 262 651L306 680Q345 707 368 717Q400 731 438 731Q515 731 572.5 678.5Q630 626 630 550V92Q630 70 646 54Q654 46 684.5 42.5Q715 39 715 22Z"/><path id="f7-e" d="M546 460Q546 449 546 444Q546 418 540 407Q531 391 504 391H169Q166 365 166 346Q166 336 167.0 323.0Q168 310 168 302Q181 175 231 114Q274 62 341 54Q346 53 350 53Q354 53 355 53Q394 53 429.5 73.5Q465 94 486 132L508 170Q511 175 514 181Q521 192 531 190Q544 189 544 170Q544 164 542.0 157.0Q540 150 538 145L515 96Q495 51 440.0 19.0Q385 -13 326 -13Q201 -13 122 98Q49 201 49 341Q49 494 114 603Q191 731 324 731Q435 731 494 647Q546 573 546 460ZM447 532Q447 597 416 644Q381 697 326 697Q257 697 209 608Q169 534 169 468Q169 462 169 459Q169 436 179 436H337Q368 436 382 439Q410 445 424.0 461.5Q438 478 442.5 493.5Q447 509 447 532Z"/><path id="f7-p" d="M645 375Q645 221 575 108Q497 -18 367 -18Q339 -18 300 -4Q262 12 256 14Q248 17 245.5 8.0Q243 -1 243 -16V-218Q243 -239 247.5 -254.0Q252 -269 264.0 -279.0Q276 -289 315.5 -291.5Q355 -294 355 -315Q355 -337 306 -337Q291 -337 248.0 -335.0Q205 -333 194 -333L88 -336Q66 -336 60 -334Q45 -329 45 -314Q45 -297 70 -293Q114 -286 116 -285Q129 -279 132.5 -266.0Q136 -253 136 -233V540Q136 559 132.5 570.5Q129 582 117 594Q110 601 83.0 602.0Q56 603 52 615Q45 632 78.0 648.0Q111 664 143 680Q164 695 192 721Q211 739 218 738Q226 737 226 723Q226 712 226 708V652Q226 636 236 633Q274 668 314 696Q359 728 403 728Q517 728 585 614Q645 514 645 375ZM533 359Q533 477 489 563Q439 660 356 660Q308 660 273.0 622.0Q238 584 238 532V193Q238 128 270.5 73.5Q303 19 356 19Q364 20 368 20Q443 29 483 96Q533 179 533 359Z"/><path id="f7-c" d="M522 158 499 107Q477 59 424.5 21.5Q372 -16 315 -16Q189 -16 112 97Q42 199 42 341Q42 488 112 596Q190 717 323 731Q327 732 342.5 732.0Q358 732 367 733Q431 733 469 715Q516 693 516 646L509 546Q509 523 486 518Q474 516 464.5 525.5Q455 535 449 548L410 638Q399 663 377.5 679.0Q356 695 331 695Q325 695 315 693Q234 676 189 576Q149 487 149 371Q149 248 188 160Q235 55 320 55Q335 54 339 54Q378 54 414.5 78.0Q451 102 472 143L492 183Q496 192 501.5 201.0Q507 210 516 209Q528 208 528 188Q528 176 522 158Z"/><path id="f7-k" d="M653 23Q653 -1 613 -1Q589 -1 576 0Q523 4 515 4Q491 4 457.5 1.5Q424 -1 419 -1Q406 -1 397.5 4.0Q389 9 389 22Q389 40 416.5 44.0Q444 48 446.5 56.0Q449 64 449 67Q449 76 442.0 87.5Q435 99 429 110L278 377L222 315V110Q222 92 224.5 81.0Q227 70 236 60Q249 45 279.0 43.5Q309 42 309 20Q309 -1 267 -1Q252 -1 227.0 2.0Q202 5 186 5Q169 5 142.0 2.0Q115 -1 103 -1Q81 -1 67.0 4.0Q53 9 53 24Q53 38 81.5 44.5Q110 51 117.5 63.0Q125 75 126.0 90.5Q127 106 127 114V892Q128 905 128 911Q128 918 125 924Q122 930 114.0 936.0Q106 942 86.5 945.5Q67 949 64 957Q57 974 83.5 986.0Q110 998 136 1009Q157 1023 167 1030Q200 1052 210 1050Q215 1049 218 1044Q222 1038 222 1025V387Q254 417 276 441Q292 459 324.0 498.5Q356 538 388.5 580.0Q421 622 421 645Q420 660 408.5 667.0Q397 674 381 674L362 675Q340 677 340 694Q340 705 350.0 710.5Q360 716 386 716Q406 716 437.5 713.5Q469 711 479 711Q495 711 523.0 713.0Q551 715 568 715Q596 715 603.5 710.5Q611 706 611 696Q611 682 589.0 673.5Q567 665 547 658Q513 639 486 614Q470 599 438 561L343 451L550 104Q566 75 589 56Q601 47 627.0 43.5Q653 40 653 23Z"/><path id="f7-period" d="M178 67Q178 35 160.5 12.0Q143 -11 114 -11Q86 -11 69.0 15.0Q52 41 52 74Q52 102 70.5 122.5Q89 143 117 143Q145 143 161.5 120.5Q178 98 178 67Z"/><path id="f1-T" d="M98 1322V1490H1224V1322H757V0H567V1322Z"/><path id="f1-h" d="M338 670V0H158V1490H338V847H307Q358 1002 452.5 1067.0Q547 1132 674 1132Q787 1132 872.5 1085.5Q958 1039 1005.5 945.5Q1053 852 1053 710V0H872V695Q872 824 804.5 897.0Q737 970 620 970Q540 970 476.0 935.0Q412 900 375.0 833.0Q338 766 338 670Z"/><path id="f1-r" d="M158 0V1118H332V946H344Q375 1031 454.5 1082.5Q534 1134 634 1134Q654 1134 681.5 1133.0Q709 1132 725 1131V950Q717 952 685.0 956.0Q653 960 617 960Q537 960 473.5 926.5Q410 893 374.0 834.5Q338 776 338 700V0Z"/><path id="f1-e" d="M628 -24Q466 -24 348.5 48.0Q231 120 167.5 249.0Q104 378 104 550Q104 722 166.0 853.0Q228 984 341.5 1058.0Q455 1132 607 1132Q696 1132 782.5 1102.5Q869 1073 939.5 1007.5Q1010 942 1052.0 835.0Q1094 728 1094 573V498H226V650H997L913 594Q913 704 878.5 789.5Q844 875 776.0 923.5Q708 972 607 972Q506 972 434.0 922.5Q362 873 324.0 793.5Q286 714 286 623V522Q286 398 329.0 311.5Q372 225 449.5 180.5Q527 136 629 136Q695 136 749.0 155.0Q803 174 842.0 212.5Q881 251 902 308L1076 260Q1050 176 988.0 112.0Q926 48 834.5 12.0Q743 -24 628 -24Z"/><path id="f1-a" d="M471 -26Q365 -26 278.5 14.0Q192 54 141.0 131.0Q90 208 90 318Q90 414 128.0 474.0Q166 534 229.5 568.5Q293 603 370.0 620.0Q447 637 525 647Q625 660 688.0 667.0Q751 674 781.5 691.0Q812 708 812 749V755Q812 825 786.0 873.5Q760 922 708.0 948.0Q656 974 578 974Q498 974 441.0 949.0Q384 924 348.5 886.5Q313 849 295 810L122 867Q165 969 238.0 1026.5Q311 1084 399.0 1108.0Q487 1132 573 1132Q629 1132 700.5 1118.5Q772 1105 838.5 1065.0Q905 1025 948.5 946.5Q992 868 992 737V0H815V152H803Q784 113 742.0 71.5Q700 30 633.0 2.0Q566 -26 471 -26ZM502 133Q602 133 671.0 172.0Q740 211 776.0 273.5Q812 336 812 404V559Q801 546 764.0 535.5Q727 525 679.5 517.0Q632 509 587.5 503.5Q543 498 517 495Q452 487 395.5 467.5Q339 448 305.0 410.5Q271 373 271 309Q271 251 301.0 212.0Q331 173 383.0 153.0Q435 133 502 133Z"/><path id="f1-p" d="M158 -418V1118H332V939H352Q371 969 405.0 1014.5Q439 1060 503.0 1096.0Q567 1132 676 1132Q816 1132 922.5 1062.0Q1029 992 1089.5 862.5Q1150 733 1150 556Q1150 378 1090.0 248.0Q1030 118 923.5 47.0Q817 -24 677 -24Q571 -24 506.0 12.5Q441 49 406.0 95.5Q371 142 352 173H338V-418ZM650 137Q755 137 825.5 193.5Q896 250 931.5 345.5Q967 441 967 558Q967 674 932.0 767.5Q897 861 826.5 916.0Q756 971 650 971Q547 971 477.0 919.0Q407 867 371.5 774.5Q336 682 336 558Q336 434 372.0 339.0Q408 244 478.5 190.5Q549 137 650 137Z"/><path id="f1-s" d="M538 -24Q423 -24 333.5 9.5Q244 43 186.0 109.0Q128 175 108 271L279 312Q303 220 369.5 177.0Q436 134 536 134Q653 134 722.5 184.0Q792 234 792 303Q792 361 751.5 399.5Q711 438 628 457L442 501Q290 537 216.0 612.5Q142 688 142 806Q142 902 196.0 975.5Q250 1049 343.5 1090.5Q437 1132 556 1132Q671 1132 751.5 1097.5Q832 1063 882.5 1002.5Q933 942 958 863L795 821Q772 881 718.5 930.0Q665 979 557 979Q457 979 390.5 933.0Q324 887 324 817Q324 755 369.0 717.5Q414 680 512 657L681 617Q833 581 906.0 505.5Q979 430 979 315Q979 217 923.5 140.5Q868 64 768.5 20.0Q669 -24 538 -24Z"/><path id="f1-o" d="M613 -24Q461 -24 346.5 48.0Q232 120 168.0 250.0Q104 380 104 552Q104 727 168.0 857.5Q232 988 346.5 1060.0Q461 1132 613 1132Q766 1132 881.0 1060.0Q996 988 1060.0 857.5Q1124 727 1124 552Q1124 380 1060.0 250.0Q996 120 881.0 48.0Q766 -24 613 -24ZM613 137Q726 137 799.0 195.0Q872 253 907.0 347.5Q942 442 942 552Q942 663 907.0 758.5Q872 854 799.0 912.5Q726 971 613 971Q501 971 429.0 912.5Q357 854 322.0 759.0Q287 664 287 552Q287 442 322.0 347.5Q357 253 429.0 195.0Q501 137 613 137Z"/><path id="f1-n" d="M338 670V0H158V1118H331L332 847H307Q358 1002 452.5 1067.0Q547 1132 674 1132Q787 1132 872.0 1085.5Q957 1039 1004.5 945.5Q1052 852 1052 710V0H872V695Q872 824 804.5 897.0Q737 970 620 970Q540 970 476.0 935.0Q412 900 375.0 833.0Q338 766 338 670Z"/><path id="f1-emdash" d="M2048 719V553H0V719Z"/><path id="f1-S" d="M657 -26Q496 -26 377.5 26.0Q259 78 192.0 171.5Q125 265 116 390H311Q319 306 368.0 251.5Q417 197 493.5 170.5Q570 144 657 144Q758 144 838.5 177.0Q919 210 966.0 270.0Q1013 330 1013 409Q1013 481 972.5 526.0Q932 571 865.0 600.0Q798 629 718 651L538 702Q358 753 258.0 848.0Q158 943 158 1091Q158 1217 226.0 1311.5Q294 1406 410.0 1458.0Q526 1510 670 1510Q817 1510 930.0 1458.0Q1043 1406 1108.5 1316.5Q1174 1227 1178 1114H992Q979 1223 888.0 1282.5Q797 1342 664 1342Q568 1342 495.5 1310.5Q423 1279 383.0 1224.5Q343 1170 343 1100Q343 1022 391.5 974.5Q440 927 506.5 900.5Q573 874 627 859L776 818Q836 802 908.5 774.0Q981 746 1047.0 699.5Q1113 653 1155.5 581.5Q1198 510 1198 406Q1198 284 1134.5 186.0Q1071 88 950.0 31.0Q829 -26 657 -26Z"/><path id="f1-u" d="M537 -14Q424 -14 338.5 32.5Q253 79 205.5 173.0Q158 267 158 408V1118H338V423Q338 294 406.0 221.0Q474 148 591 148Q671 148 734.5 183.0Q798 218 835.0 285.5Q872 353 872 448V1118H1053V0H879V271H903Q851 114 755.5 50.0Q660 -14 537 -14Z"/><path id="f1-m" d="M158 0V1118H333L334 868H320Q343 959 392.5 1018.5Q442 1078 508.5 1108.0Q575 1138 647 1138Q769 1138 844.5 1063.0Q920 988 942 866H918Q938 950 991.0 1011.0Q1044 1072 1119.5 1105.0Q1195 1138 1284 1138Q1381 1138 1461.0 1096.0Q1541 1054 1588.5 969.0Q1636 884 1636 754V0H1456V749Q1456 870 1388.0 922.0Q1320 974 1230 974Q1155 974 1100.5 942.5Q1046 911 1016.5 856.0Q987 801 987 730V0H807V767Q807 860 745.0 917.0Q683 974 588 974Q523 974 465.5 943.5Q408 913 373.0 853.0Q338 793 338 704V0Z"/><path id="f1-b" d="M677 -24Q571 -24 506.0 12.5Q441 49 406.0 95.5Q371 142 352 173H332V0H158V1490H338V939H352Q371 969 405.0 1014.5Q439 1060 503.0 1096.0Q567 1132 676 1132Q816 1132 922.5 1062.0Q1029 992 1089.5 862.5Q1150 733 1150 556Q1150 378 1090.0 248.0Q1030 118 923.5 47.0Q817 -24 677 -24ZM650 137Q755 137 825.5 193.5Q896 250 931.5 345.5Q967 441 967 558Q967 674 932.0 767.5Q897 861 826.5 916.0Q756 971 650 971Q547 971 477.0 919.0Q407 867 371.5 774.5Q336 682 336 558Q336 434 372.0 339.0Q408 244 478.5 190.5Q549 137 650 137Z"/><path id="f1-g" d="M611 -442Q487 -442 396.5 -410.5Q306 -379 246.0 -327.0Q186 -275 151 -214L297 -120Q321 -152 356.5 -191.0Q392 -230 452.5 -257.5Q513 -285 611 -285Q745 -285 831.5 -221.0Q918 -157 918 -19V205H901Q882 173 847.5 129.0Q813 85 748.5 51.5Q684 18 576 18Q442 18 335.0 81.5Q228 145 166.0 267.0Q104 389 104 564Q104 737 165.0 864.5Q226 992 333.5 1062.0Q441 1132 580 1132Q688 1132 752.5 1096.5Q817 1061 852.0 1015.0Q887 969 906 939H923V1118H1098V-29Q1098 -173 1033.0 -264.5Q968 -356 857.5 -399.0Q747 -442 611 -442ZM606 178Q708 178 778.0 224.5Q848 271 884.0 358.5Q920 446 920 568Q920 687 884.5 777.5Q849 868 779.0 919.5Q709 971 606 971Q500 971 429.0 916.5Q358 862 322.5 771.0Q287 680 287 568Q287 453 323.0 365.0Q359 277 430.0 227.5Q501 178 606 178Z"/><path id="f1-f" d="M678 1118V964H20V1118ZM240 0V1267Q240 1364 285.5 1429.0Q331 1494 404.0 1527.0Q477 1560 558 1560Q622 1560 664.0 1549.5Q706 1539 726 1530L676 1376Q662 1381 639.5 1387.0Q617 1393 579 1393Q496 1393 458.0 1350.5Q420 1308 420 1227V0Z"/><path id="f1-t" d="M598 1118V964H20V1118ZM188 1384H368V290Q368 215 398.5 180.5Q429 146 500 146Q517 146 543.5 150.0Q570 154 592 158L629 6Q601 -4 565.5 -9.0Q530 -14 495 -14Q350 -14 269.0 62.5Q188 139 188 276Z"/><path id="f1-P" d="M180 0V1490H690Q864 1490 976.5 1426.5Q1089 1363 1143.5 1256.0Q1198 1149 1198 1016Q1198 883 1143.5 775.0Q1089 667 977.0 603.0Q865 539 691 539H330V706H682Q800 706 872.0 746.5Q944 787 976.5 857.5Q1009 928 1009 1016Q1009 1104 976.5 1173.5Q944 1243 871.5 1283.0Q799 1323 680 1323H370V0Z"/><path id="f1-N" d="M180 0V1490H404L1010 537Q1034 500 1068.0 442.0Q1102 384 1141.5 311.0Q1181 238 1219 155H1192Q1183 241 1179.0 319.5Q1175 398 1174.0 464.0Q1173 530 1173 576V1490H1363V0H1137L597 848Q560 907 522.5 969.5Q485 1032 437.0 1117.5Q389 1203 318 1329H353Q358 1218 362.0 1124.0Q366 1030 368.5 960.0Q371 890 371 850V0Z"/><path id="f1-comma" d="M128 -359 216 208H422L266 -359Z"/><path id="f1-B" d="M180 0V1490H708Q864 1490 965.5 1436.5Q1067 1383 1116.5 1293.5Q1166 1204 1166 1095Q1166 999 1132.0 936.5Q1098 874 1042.5 837.0Q987 800 922 782V768Q992 764 1061.5 720.0Q1131 676 1177.5 595.0Q1224 514 1224 397Q1224 285 1172.5 195.0Q1121 105 1011.0 52.5Q901 0 725 0ZM370 168H720Q894 168 967.5 235.0Q1041 302 1041 399Q1041 474 1003.0 537.0Q965 600 895.5 638.0Q826 676 730 676H370ZM370 836H698Q778 836 843.0 867.5Q908 899 946.0 956.5Q984 1014 984 1091Q984 1188 916.5 1255.0Q849 1322 704 1322H370Z"/><path id="f1-z" d="M126 0V134L753 940V951H146V1118H985V975L376 178V167H1005V0Z"/><path id="f1-M" d="M180 0V1490H450L817 550Q830 517 846.5 467.5Q863 418 881.5 360.0Q900 302 917.0 244.5Q934 187 947 138H905Q919 184 936.0 240.5Q953 297 971.5 355.5Q990 414 1007.0 465.0Q1024 516 1037 550L1399 1490H1670V0H1483V851Q1483 897 1483.5 956.0Q1484 1015 1485.5 1080.0Q1487 1145 1488.5 1212.0Q1490 1279 1491 1342H1507Q1486 1273 1462.5 1201.5Q1439 1130 1416.5 1063.5Q1394 997 1374.0 942.0Q1354 887 1340 851L1007 0H842L504 851Q490 886 471.0 939.5Q452 993 429.5 1058.5Q407 1124 383.0 1196.5Q359 1269 334 1342H352Q354 1286 355.5 1221.0Q357 1156 358.0 1089.5Q359 1023 360.0 961.5Q361 900 361 851V0Z"/><path id="f1-Q" d="M722 466H920L1086 248L1128 190L1376 -140H1178L1016 78L974 134ZM784 -20Q593 -20 443.5 72.5Q294 165 208.0 336.5Q122 508 122 744Q122 981 208.0 1152.5Q294 1324 443.5 1417.0Q593 1510 784 1510Q975 1510 1124.0 1417.0Q1273 1324 1358.5 1152.5Q1444 981 1444 744Q1444 508 1358.5 336.5Q1273 165 1124.0 72.5Q975 -20 784 -20ZM784 156Q917 156 1024.5 223.5Q1132 291 1195.5 422.5Q1259 554 1259 744Q1259 936 1195.5 1067.5Q1132 1199 1024.5 1266.5Q917 1334 784 1334Q650 1334 542.0 1266.0Q434 1198 370.5 1066.5Q307 935 307 744Q307 554 370.5 423.0Q434 292 542.0 224.0Q650 156 784 156Z"/><path id="f1-C" d="M783 -20Q592 -20 442.5 72.5Q293 165 207.5 336.5Q122 508 122 744Q122 981 207.5 1152.5Q293 1324 442.5 1417.0Q592 1510 783 1510Q896 1510 996.5 1477.0Q1097 1444 1177.0 1380.5Q1257 1317 1310.5 1226.5Q1364 1136 1384 1021H1194Q1178 1098 1139.5 1156.0Q1101 1214 1045.5 1254.0Q990 1294 923.0 1314.0Q856 1334 783 1334Q649 1334 541.0 1266.0Q433 1198 370.0 1066.5Q307 935 307 744Q307 554 370.5 422.5Q434 291 542.0 223.5Q650 156 783 156Q856 156 923.0 176.5Q990 197 1045.5 236.5Q1101 276 1139.5 334.5Q1178 393 1194 469H1384Q1365 355 1311.5 265.0Q1258 175 1178.0 111.0Q1098 47 997.5 13.5Q897 -20 783 -20Z"/><path id="f1-i" d="M158 0V1118H338V0ZM249 1301Q198 1301 161.0 1336.0Q124 1371 124 1420Q124 1470 161.0 1504.5Q198 1539 249 1539Q301 1539 338.0 1504.5Q375 1470 375 1420Q375 1371 338.0 1336.0Q301 1301 249 1301Z"/><path id="f1-y" d="M140 -405 186 -249 205 -254Q260 -268 305.0 -261.5Q350 -255 386.0 -217.0Q422 -179 449 -99L481 -6L54 1118H251L489 455Q527 351 553.0 249.0Q579 147 608 51H542Q571 147 597.5 249.5Q624 352 661 455L901 1118H1097L606 -167Q572 -256 524.5 -313.5Q477 -371 414.0 -398.5Q351 -426 272 -426Q224 -426 189.0 -419.0Q154 -412 140 -405Z"/><path id="f1-D" d="M645 0H285V168H633Q815 168 934.5 237.5Q1054 307 1113.0 437.0Q1172 567 1172 748Q1172 927 1113.5 1055.5Q1055 1184 939.5 1253.0Q824 1322 651 1322H277V1490H664Q882 1490 1036.5 1401.0Q1191 1312 1273.5 1145.5Q1356 979 1356 748Q1356 515 1273.0 347.5Q1190 180 1031.0 90.0Q872 0 645 0ZM370 1490V0H180V1490Z"/><path id="f1-l" d="M338 1490V0H158V1490Z"/><path id="f1-G" d="M789 -20Q590 -20 440.0 73.0Q290 166 206.0 337.5Q122 509 122 744Q122 981 206.0 1152.5Q290 1324 438.0 1417.0Q586 1510 777 1510Q895 1510 997.5 1475.0Q1100 1440 1181.0 1375.0Q1262 1310 1315.5 1220.5Q1369 1131 1389 1023H1193Q1170 1095 1132.0 1152.0Q1094 1209 1041.5 1250.0Q989 1291 923.0 1312.5Q857 1334 778 1334Q647 1334 540.0 1266.5Q433 1199 370.0 1067.5Q307 936 307 744Q307 554 370.5 423.0Q434 292 543.0 224.0Q652 156 789 156Q915 156 1011.0 209.5Q1107 263 1160.5 361.5Q1214 460 1214 594L1271 583H828V749H1400V586Q1400 401 1321.0 265.0Q1242 129 1104.5 54.5Q967 -20 789 -20Z"/><path id="f1-O" d="M784 -20Q593 -20 443.5 72.5Q294 165 208.0 336.5Q122 508 122 744Q122 981 208.0 1152.5Q294 1324 443.5 1417.0Q593 1510 784 1510Q975 1510 1124.0 1417.0Q1273 1324 1358.5 1152.5Q1444 981 1444 744Q1444 508 1358.5 336.5Q1273 165 1124.0 72.5Q975 -20 784 -20ZM784 156Q917 156 1024.5 223.5Q1132 291 1195.5 422.5Q1259 554 1259 744Q1259 936 1195.5 1067.5Q1132 1199 1024.5 1266.5Q917 1334 784 1334Q650 1334 542.0 1266.0Q434 1198 370.5 1066.5Q307 935 307 744Q307 554 370.5 423.0Q434 292 542.0 224.0Q650 156 784 156Z"/><path id="f1-I" d="M370 1490V0H180V1490Z"/><path id="f1-colon" d="M295 -13Q239 -13 199.5 26.5Q160 66 160 122Q160 178 199.5 217.5Q239 257 295 257Q351 257 390.5 217.5Q430 178 430 122Q430 66 390.5 26.5Q351 -13 295 -13ZM295 796Q239 796 199.5 835.5Q160 875 160 931Q160 987 199.5 1026.5Q239 1066 295 1066Q351 1066 390.5 1026.5Q430 987 430 931Q430 875 390.5 835.5Q351 796 295 796Z"/><path id="f1-hyphen" d="M798 719V553H144V719Z"/><path id="f1-c" d="M613 -24Q461 -24 346.5 48.0Q232 120 168.0 250.0Q104 380 104 552Q104 727 168.0 857.5Q232 988 346.5 1060.0Q461 1132 613 1132Q694 1132 766.0 1111.0Q838 1090 897.5 1050.5Q957 1011 1000.0 953.5Q1043 896 1066 823L893 774Q881 817 856.0 853.0Q831 889 795.5 915.5Q760 942 714.0 956.5Q668 971 613 971Q501 971 429.0 912.5Q357 854 322.0 759.0Q287 664 287 552Q287 442 322.0 347.5Q357 253 429.0 195.0Q501 137 613 137Q669 137 716.0 152.0Q763 167 799.5 194.5Q836 222 861.0 260.0Q886 298 898 343L1070 294Q1048 219 1004.5 160.5Q961 102 901.0 60.5Q841 19 768.0 -2.5Q695 -24 613 -24Z"/><path id="f1-v" d="M481 0 54 1118H251L489 455Q527 352 553.5 249.5Q580 147 609 51H543Q572 147 598.5 249.5Q625 352 662 455L900 1118H1097L670 0Z"/><path id="f1-d" d="M577 -24Q438 -24 331.0 47.0Q224 118 164.0 248.0Q104 378 104 556Q104 733 164.5 862.5Q225 992 332.0 1062.0Q439 1132 578 1132Q687 1132 751.0 1096.0Q815 1060 849.5 1014.5Q884 969 902 939H916V1490H1096V0H922V173H902Q884 142 848.5 95.5Q813 49 748.5 12.5Q684 -24 577 -24ZM604 137Q706 137 776.0 190.5Q846 244 882.0 339.0Q918 434 918 558Q918 682 882.5 774.5Q847 867 777.0 919.0Q707 971 604 971Q498 971 427.5 916.0Q357 861 322.0 767.5Q287 674 287 558Q287 441 322.5 345.5Q358 250 429.0 193.5Q500 137 604 137Z"/><path id="f1-period" d="M295 -13Q239 -13 199.5 26.5Q160 66 160 122Q160 178 199.5 217.5Q239 257 295 257Q351 257 390.5 217.5Q430 178 430 122Q430 66 390.5 26.5Q351 -13 295 -13Z"/><path id="f4-F" d="M90 0V698H530V625H174V390H500V317H174V0Z"/><path id="f4-l" d="M80 68H260V672H80V740H340V68H520V0H80Z"/><path id="f4-u" d="M422 84H418Q410 65 398.0 47.5Q386 30 368.5 17.0Q351 4 327.0 -4.0Q303 -12 271 -12Q190 -12 141.0 39.5Q92 91 92 185V516H172V199Q172 128 203.0 93.5Q234 59 294 59Q318 59 341.0 65.0Q364 71 382.0 83.0Q400 95 411.0 113.5Q422 132 422 158V516H502V0H422Z"/><path id="f4-t" d="M325 0Q266 0 238.5 33.0Q211 66 211 118V448H39V516H167Q193 516 203.5 526.5Q214 537 214 563V698H291V516H526V448H291V68H526V0Z"/><path id="f4-e" d="M309 -12Q253 -12 208.5 7.0Q164 26 132.5 61.5Q101 97 84.0 146.5Q67 196 67 257Q67 319 84.5 369.0Q102 419 133.0 454.5Q164 490 207.5 509.0Q251 528 304 528Q356 528 398.5 509.0Q441 490 471.0 456.5Q501 423 517.0 377.0Q533 331 533 276V238H151V214Q151 180 162.0 151.0Q173 122 193.5 101.0Q214 80 243.5 68.5Q273 57 309 57Q361 57 399.0 81.0Q437 105 457 147L516 107Q493 55 439.5 21.5Q386 -12 309 -12ZM304 462Q271 462 243.0 450.0Q215 438 194.5 417.0Q174 396 162.5 367.5Q151 339 151 305V298H447V309Q447 343 436.5 371.0Q426 399 407.5 419.5Q389 440 362.5 451.0Q336 462 304 462Z"/><path id="f4-r" d="M77 68H228V448H77V516H308V386H313Q329 447 373.5 481.5Q418 516 487 516H559V436H462Q393 436 350.5 396.0Q308 356 308 291V68H508V0H77Z"/><path id="f4-L" d="M120 0V698H204V73H535V0Z"/><path id="f4-a" d="M495 0Q448 0 428.0 24.0Q408 48 403 84H398Q381 39 343.5 13.5Q306 -12 243 -12Q162 -12 114.0 30.0Q66 72 66 145Q66 217 118.5 256.0Q171 295 288 295H398V346Q398 403 366.0 431.5Q334 460 275 460Q223 460 190.0 439.5Q157 419 137 384L83 424Q93 444 110.0 463.0Q127 482 152.0 496.5Q177 511 209.0 519.5Q241 528 280 528Q371 528 424.5 482.0Q478 436 478 354V70H550V0ZM257 55Q288 55 313.5 62.5Q339 70 358.0 82.5Q377 95 387.5 112.5Q398 130 398 150V235H288Q216 235 183.0 215.0Q150 195 150 157V136Q150 96 178.5 75.5Q207 55 257 55Z"/><path id="f4-v" d="M249 0 64 516H145L219 300L299 67H303L383 300L457 516H536L351 0Z"/><path id="f4-R" d="M174 0H90V698H344Q441 698 492.0 645.0Q543 592 543 497Q543 412 499.0 361.0Q455 310 371 302L549 0H455L285 298H174ZM342 369Q395 369 424.5 395.5Q454 422 454 471V523Q454 572 424.5 598.5Q395 625 342 625H174V369Z"/><path id="f4-b" d="M95 740H175V432H179Q229 528 338 528Q433 528 486.5 457.0Q540 386 540 258Q540 130 486.5 59.0Q433 -12 338 -12Q229 -12 179 84H175V0H95ZM307 59Q377 59 415.5 101.5Q454 144 454 214V302Q454 372 415.5 414.5Q377 457 307 457Q280 457 256.0 450.0Q232 443 214.0 429.5Q196 416 185.5 396.5Q175 377 175 351V165Q175 139 185.5 119.5Q196 100 214.0 86.5Q232 73 256.0 66.0Q280 59 307 59Z"/><path id="f4-W" d="M90 0 35 698H110L139 298L154 87H162L254 516H348L440 87H448L463 298L492 698H565L510 0H389L304 417H296L211 0Z"/><path id="f4-T" d="M342 625V0H258V625H25V698H575V625Z"/><path id="f4-C" d="M323 -12Q195 -12 132.5 81.0Q70 174 70 349Q70 524 132.5 617.0Q195 710 323 710Q371 710 406.0 697.0Q441 684 466.0 662.0Q491 640 508.0 612.5Q525 585 538 557L466 524Q457 547 445.0 567.5Q433 588 416.5 603.5Q400 619 377.5 628.0Q355 637 323 637Q240 637 199.5 574.0Q159 511 159 406V292Q159 187 199.5 124.0Q240 61 323 61Q355 61 377.5 70.0Q400 79 416.5 94.5Q433 110 445.0 130.5Q457 151 466 174L538 141Q525 112 508.0 85.0Q491 58 466.0 36.0Q441 14 406.0 1.0Q371 -12 323 -12Z"/><path id="f4-H" d="M436 317H164V0H80V698H164V390H436V698H520V0H436Z"/><path id="f4-i" d="M332 630Q297 630 283.0 644.5Q269 659 269 681V697Q269 719 283.0 733.5Q297 748 332 748Q367 748 381.0 733.5Q395 719 395 697V681Q395 659 381.0 644.5Q367 630 332 630ZM106 68H292V448H106V516H372V68H546V0H106Z"/><style></style></defs><rect width="860" height="232" fill="#0d1117"/><g transform="translate(44 38) scale(0.0891) translate(-12.69 -52.12)"><path fill="#f0f6fc" d="M85.14 59.25Q63.9 69.62 54.87 81.05Q45.84 92.49 45.84 106.25Q45.84 114.47 50.66 119.97Q55.47 125.47 61.79 129Q68.11 132.53 72.93 134.7Q77.75 136.87 77.75 138.42Q77.75 151.53 69.1 160.2Q60.46 168.86 46.79 168.86Q31.82 168.86 22.25 159.01Q12.69 149.17 12.69 130.59Q12.69 115.37 19.93 101.31Q27.18 87.25 42.29 74.78Q57.41 62.31 80.8 52.12ZM167.96 59.25Q146.72 69.62 137.69 81.05Q128.66 92.49 128.66 106.25Q128.66 114.47 133.47 119.97Q138.29 125.47 144.61 129Q150.93 132.53 155.75 134.7Q160.56 136.87 160.56 138.42Q160.56 151.53 151.92 160.2Q143.28 168.86 129.6 168.86Q114.64 168.86 105.07 159.01Q95.5 149.17 95.5 130.59Q95.5 115.37 102.75 101.31Q110 87.25 125.11 74.78Q140.22 62.31 163.62 52.12Z"/><path fill="#a5502e" d="M189.7 52.12H243.31V198.05H189.7Z"/></g><g fill="#9198a1" ><use href="#f5-zero" transform="translate(74.00 49.00) scale(0.01150 -0.01150)"/><use href="#f5-five" transform="translate(83.30 49.00) scale(0.01150 -0.01150)"/><use href="#f5-periodcentered" transform="translate(101.90 49.00) scale(0.01150 -0.01150)"/><use href="#f5-A" transform="translate(120.50 49.00) scale(0.01150 -0.01150)"/><use href="#f5-P" transform="translate(129.80 49.00) scale(0.01150 -0.01150)"/><use href="#f5-P" transform="translate(139.10 49.00) scale(0.01150 -0.01150)"/><use href="#f5-D" transform="translate(157.70 49.00) scale(0.01150 -0.01150)"/><use href="#f5-E" transform="translate(167.00 49.00) scale(0.01150 -0.01150)"/><use href="#f5-V" transform="translate(176.30 49.00) scale(0.01150 -0.01150)"/><use href="#f5-E" transform="translate(185.60 49.00) scale(0.01150 -0.01150)"/><use href="#f5-L" transform="translate(194.90 49.00) scale(0.01150 -0.01150)"/><use href="#f5-O" transform="translate(204.20 49.00) scale(0.01150 -0.01150)"/><use href="#f5-P" transform="translate(213.50 49.00) scale(0.01150 -0.01150)"/><use href="#f5-M" transform="translate(222.80 49.00) scale(0.01150 -0.01150)"/><use href="#f5-E" transform="translate(232.10 49.00) scale(0.01150 -0.01150)"/><use href="#f5-N" transform="translate(241.40 49.00) scale(0.01150 -0.01150)"/><use href="#f5-T" transform="translate(250.70 49.00) scale(0.01150 -0.01150)"/></g><g fill="#f0f6fc" ><use href="#f7-B" transform="translate(43.00 108.00) scale(0.03461 -0.03461)"/><use href="#f7-u" transform="translate(68.99 108.00) scale(0.03461 -0.03461)"/><use href="#f7-i" transform="translate(93.81 108.00) scale(0.03461 -0.03461)"/><use href="#f7-l" transform="translate(106.38 108.00) scale(0.03461 -0.03461)"/><use href="#f7-t" transform="translate(119.63 108.00) scale(0.03461 -0.03461)"/><use href="#f7-f" transform="translate(148.95 108.00) scale(0.03461 -0.03461)"/><use href="#f7-o" transform="translate(164.18 108.00) scale(0.03461 -0.03461)"/><use href="#f7-r" transform="translate(186.81 108.00) scale(0.03461 -0.03461)"/><use href="#f7-t" transform="translate(219.14 108.00) scale(0.03461 -0.03461)"/><use href="#f7-h" transform="translate(234.23 108.00) scale(0.03461 -0.03461)"/><use href="#f7-e" transform="translate(260.23 108.00) scale(0.03461 -0.03461)"/><use href="#f7-p" transform="translate(294.63 108.00) scale(0.03461 -0.03461)"/><use href="#f7-o" transform="translate(318.24 108.00) scale(0.03461 -0.03461)"/><use href="#f7-c" transform="translate(340.88 108.00) scale(0.03461 -0.03461)"/><use href="#f7-k" transform="translate(360.43 108.00) scale(0.03461 -0.03461)"/><use href="#f7-e" transform="translate(384.45 108.00) scale(0.03461 -0.03461)"/><use href="#f7-t" transform="translate(404.63 108.00) scale(0.03461 -0.03461)"/><use href="#f7-period" transform="translate(419.72 108.00) scale(0.03461 -0.03461)"/></g><g fill="#9198a1" ><use href="#f1-T" transform="translate(44.00 142.00) scale(0.00708 -0.00708)"/><use href="#f1-h" transform="translate(53.36 142.00) scale(0.00708 -0.00708)"/><use href="#f1-r" transform="translate(61.93 142.00) scale(0.00708 -0.00708)"/><use href="#f1-e" transform="translate(67.39 142.00) scale(0.00708 -0.00708)"/><use href="#f1-e" transform="translate(75.85 142.00) scale(0.00708 -0.00708)"/><use href="#f1-a" transform="translate(88.38 142.00) scale(0.00708 -0.00708)"/><use href="#f1-p" transform="translate(96.52 142.00) scale(0.00708 -0.00708)"/><use href="#f1-p" transform="translate(105.40 142.00) scale(0.00708 -0.00708)"/><use href="#f1-s" transform="translate(114.28 142.00) scale(0.00708 -0.00708)"/><use href="#f1-o" transform="translate(126.01 142.00) scale(0.00708 -0.00708)"/><use href="#f1-n" transform="translate(134.70 142.00) scale(0.00708 -0.00708)"/><use href="#f1-o" transform="translate(147.35 142.00) scale(0.00708 -0.00708)"/><use href="#f1-n" transform="translate(156.04 142.00) scale(0.00708 -0.00708)"/><use href="#f1-e" transform="translate(164.61 142.00) scale(0.00708 -0.00708)"/><use href="#f1-p" transform="translate(177.14 142.00) scale(0.00708 -0.00708)"/><use href="#f1-h" transform="translate(186.02 142.00) scale(0.00708 -0.00708)"/><use href="#f1-o" transform="translate(194.59 142.00) scale(0.00708 -0.00708)"/><use href="#f1-n" transform="translate(203.29 142.00) scale(0.00708 -0.00708)"/><use href="#f1-e" transform="translate(211.85 142.00) scale(0.00708 -0.00708)"/><use href="#f1-emdash" transform="translate(224.39 142.00) scale(0.00708 -0.00708)"/><use href="#f1-S" transform="translate(242.96 142.00) scale(0.00708 -0.00708)"/><use href="#f1-u" transform="translate(252.27 142.00) scale(0.00708 -0.00708)"/><use href="#f1-m" transform="translate(260.84 142.00) scale(0.00708 -0.00708)"/><use href="#f1-b" transform="translate(273.54 142.00) scale(0.00708 -0.00708)"/><use href="#f1-u" transform="translate(282.42 142.00) scale(0.00708 -0.00708)"/><use href="#f1-n" transform="translate(291.00 142.00) scale(0.00708 -0.00708)"/><use href="#f1-g" transform="translate(299.56 142.00) scale(0.00708 -0.00708)"/><use href="#f1-a" transform="translate(308.46 142.00) scale(0.00708 -0.00708)"/><use href="#f1-n" transform="translate(316.60 142.00) scale(0.00708 -0.00708)"/><use href="#f1-f" transform="translate(329.24 142.00) scale(0.00708 -0.00708)"/><use href="#f1-o" transform="translate(334.61 142.00) scale(0.00708 -0.00708)"/><use href="#f1-r" transform="translate(343.30 142.00) scale(0.00708 -0.00708)"/><use href="#f1-t" transform="translate(352.84 142.00) scale(0.00708 -0.00708)"/><use href="#f1-h" transform="translate(357.58 142.00) scale(0.00708 -0.00708)"/><use href="#f1-e" transform="translate(366.16 142.00) scale(0.00708 -0.00708)"/><use href="#f1-P" transform="translate(378.69 142.00) scale(0.00708 -0.00708)"/><use href="#f1-N" transform="translate(387.95 142.00) scale(0.00708 -0.00708)"/><use href="#f1-P" transform="translate(398.87 142.00) scale(0.00708 -0.00708)"/><use href="#f1-comma" transform="translate(408.14 142.00) scale(0.00708 -0.00708)"/><use href="#f1-B" transform="translate(416.39 142.00) scale(0.00708 -0.00708)"/><use href="#f1-u" transform="translate(425.88 142.00) scale(0.00708 -0.00708)"/><use href="#f1-z" transform="translate(434.45 142.00) scale(0.00708 -0.00708)"/><use href="#f1-z" transform="translate(442.46 142.00) scale(0.00708 -0.00708)"/><use href="#f1-M" transform="translate(450.47 142.00) scale(0.00708 -0.00708)"/><use href="#f1-a" transform="translate(463.57 142.00) scale(0.00708 -0.00708)"/><use href="#f1-p" transform="translate(471.71 142.00) scale(0.00708 -0.00708)"/><use href="#f1-f" transform="translate(484.66 142.00) scale(0.00708 -0.00708)"/><use href="#f1-o" transform="translate(490.03 142.00) scale(0.00708 -0.00708)"/><use href="#f1-r" transform="translate(498.73 142.00) scale(0.00708 -0.00708)"/><use href="#f1-Q" transform="translate(508.26 142.00) scale(0.00708 -0.00708)"/><use href="#f1-u" transform="translate(519.35 142.00) scale(0.00708 -0.00708)"/><use href="#f1-e" transform="translate(527.92 142.00) scale(0.00708 -0.00708)"/><use href="#f1-z" transform="translate(536.38 142.00) scale(0.00708 -0.00708)"/><use href="#f1-o" transform="translate(544.38 142.00) scale(0.00708 -0.00708)"/><use href="#f1-n" transform="translate(553.08 142.00) scale(0.00708 -0.00708)"/><use href="#f1-C" transform="translate(565.72 142.00) scale(0.00708 -0.00708)"/><use href="#f1-i" transform="translate(576.32 142.00) scale(0.00708 -0.00708)"/><use href="#f1-t" transform="translate(579.83 142.00) scale(0.00708 -0.00708)"/><use href="#f1-y" transform="translate(584.57 142.00) scale(0.00708 -0.00708)"/><use href="#f1-comma" transform="translate(592.72 142.00) scale(0.00708 -0.00708)"/><use href="#f1-D" transform="translate(600.98 142.00) scale(0.00708 -0.00708)"/><use href="#f1-a" transform="translate(611.44 142.00) scale(0.00708 -0.00708)"/><use href="#f1-l" transform="translate(619.58 142.00) scale(0.00708 -0.00708)"/><use href="#f1-a" transform="translate(623.09 142.00) scale(0.00708 -0.00708)"/><use href="#f1-G" transform="translate(631.24 142.00) scale(0.00708 -0.00708)"/><use href="#f1-O" transform="translate(642.05 142.00) scale(0.00708 -0.00708)"/><use href="#f1-f" transform="translate(657.22 142.00) scale(0.00708 -0.00708)"/><use href="#f1-o" transform="translate(662.59 142.00) scale(0.00708 -0.00708)"/><use href="#f1-r" transform="translate(671.28 142.00) scale(0.00708 -0.00708)"/><use href="#f1-I" transform="translate(680.82 142.00) scale(0.00708 -0.00708)"/><use href="#f1-n" transform="translate(684.71 142.00) scale(0.00708 -0.00708)"/><use href="#f1-f" transform="translate(693.28 142.00) scale(0.00708 -0.00708)"/><use href="#f1-a" transform="translate(698.65 142.00) scale(0.00708 -0.00708)"/><use href="#f1-n" transform="translate(706.79 142.00) scale(0.00708 -0.00708)"/><use href="#f1-t" transform="translate(715.35 142.00) scale(0.00708 -0.00708)"/><use href="#f1-a" transform="translate(720.10 142.00) scale(0.00708 -0.00708)"/><use href="#f1-colon" transform="translate(728.24 142.00) scale(0.00708 -0.00708)"/></g><g fill="#9198a1" ><use href="#f1-o" transform="translate(44.00 164.00) scale(0.00708 -0.00708)"/><use href="#f1-f" transform="translate(52.69 164.00) scale(0.00708 -0.00708)"/><use href="#f1-f" transform="translate(58.06 164.00) scale(0.00708 -0.00708)"/><use href="#f1-l" transform="translate(63.43 164.00) scale(0.00708 -0.00708)"/><use href="#f1-i" transform="translate(66.94 164.00) scale(0.00708 -0.00708)"/><use href="#f1-n" transform="translate(70.45 164.00) scale(0.00708 -0.00708)"/><use href="#f1-e" transform="translate(79.02 164.00) scale(0.00708 -0.00708)"/><use href="#f1-hyphen" transform="translate(87.47 164.00) scale(0.00708 -0.00708)"/><use href="#f1-f" transform="translate(94.14 164.00) scale(0.00708 -0.00708)"/><use href="#f1-i" transform="translate(99.51 164.00) scale(0.00708 -0.00708)"/><use href="#f1-r" transform="translate(103.02 164.00) scale(0.00708 -0.00708)"/><use href="#f1-s" transform="translate(108.48 164.00) scale(0.00708 -0.00708)"/><use href="#f1-t" transform="translate(116.13 164.00) scale(0.00708 -0.00708)"/><use href="#f1-r" transform="translate(124.95 164.00) scale(0.00708 -0.00708)"/><use href="#f1-e" transform="translate(130.41 164.00) scale(0.00708 -0.00708)"/><use href="#f1-p" transform="translate(138.87 164.00) scale(0.00708 -0.00708)"/><use href="#f1-o" transform="translate(147.74 164.00) scale(0.00708 -0.00708)"/><use href="#f1-r" transform="translate(156.44 164.00) scale(0.00708 -0.00708)"/><use href="#f1-t" transform="translate(161.90 164.00) scale(0.00708 -0.00708)"/><use href="#f1-s" transform="translate(166.64 164.00) scale(0.00708 -0.00708)"/><use href="#f1-comma" transform="translate(174.29 164.00) scale(0.00708 -0.00708)"/><use href="#f1-p" transform="translate(182.55 164.00) scale(0.00708 -0.00708)"/><use href="#f1-a" transform="translate(191.43 164.00) scale(0.00708 -0.00708)"/><use href="#f1-n" transform="translate(199.57 164.00) scale(0.00708 -0.00708)"/><use href="#f1-i" transform="translate(208.14 164.00) scale(0.00708 -0.00708)"/><use href="#f1-c" transform="translate(211.65 164.00) scale(0.00708 -0.00708)"/><use href="#f1-b" transform="translate(224.01 164.00) scale(0.00708 -0.00708)"/><use href="#f1-u" transform="translate(232.89 164.00) scale(0.00708 -0.00708)"/><use href="#f1-t" transform="translate(241.46 164.00) scale(0.00708 -0.00708)"/><use href="#f1-t" transform="translate(246.21 164.00) scale(0.00708 -0.00708)"/><use href="#f1-o" transform="translate(250.95 164.00) scale(0.00708 -0.00708)"/><use href="#f1-n" transform="translate(259.65 164.00) scale(0.00708 -0.00708)"/><use href="#f1-s" transform="translate(268.21 164.00) scale(0.00708 -0.00708)"/><use href="#f1-comma" transform="translate(275.87 164.00) scale(0.00708 -0.00708)"/><use href="#f1-l" transform="translate(284.12 164.00) scale(0.00708 -0.00708)"/><use href="#f1-i" transform="translate(287.63 164.00) scale(0.00708 -0.00708)"/><use href="#f1-v" transform="translate(291.14 164.00) scale(0.00708 -0.00708)"/><use href="#f1-e" transform="translate(299.29 164.00) scale(0.00708 -0.00708)"/><use href="#f1-d" transform="translate(311.83 164.00) scale(0.00708 -0.00708)"/><use href="#f1-i" transform="translate(320.70 164.00) scale(0.00708 -0.00708)"/><use href="#f1-s" transform="translate(324.22 164.00) scale(0.00708 -0.00708)"/><use href="#f1-p" transform="translate(331.87 164.00) scale(0.00708 -0.00708)"/><use href="#f1-a" transform="translate(340.75 164.00) scale(0.00708 -0.00708)"/><use href="#f1-t" transform="translate(348.89 164.00) scale(0.00708 -0.00708)"/><use href="#f1-c" transform="translate(353.63 164.00) scale(0.00708 -0.00708)"/><use href="#f1-h" transform="translate(361.92 164.00) scale(0.00708 -0.00708)"/><use href="#f1-a" transform="translate(374.57 164.00) scale(0.00708 -0.00708)"/><use href="#f1-n" transform="translate(382.71 164.00) scale(0.00708 -0.00708)"/><use href="#f1-d" transform="translate(391.28 164.00) scale(0.00708 -0.00708)"/><use href="#f1-d" transform="translate(404.23 164.00) scale(0.00708 -0.00708)"/><use href="#f1-e" transform="translate(413.11 164.00) scale(0.00708 -0.00708)"/><use href="#f1-l" transform="translate(421.57 164.00) scale(0.00708 -0.00708)"/><use href="#f1-i" transform="translate(425.08 164.00) scale(0.00708 -0.00708)"/><use href="#f1-v" transform="translate(428.59 164.00) scale(0.00708 -0.00708)"/><use href="#f1-e" transform="translate(436.74 164.00) scale(0.00708 -0.00708)"/><use href="#f1-r" transform="translate(445.19 164.00) scale(0.00708 -0.00708)"/><use href="#f1-y" transform="translate(450.65 164.00) scale(0.00708 -0.00708)"/><use href="#f1-period" transform="translate(458.80 164.00) scale(0.00708 -0.00708)"/></g><rect x="44.0" y="188.0" width="74.2" height="26" rx="13.0" fill="none" stroke="#30363d"/><g fill="#9198a1" ><use href="#f4-F" transform="translate(58.00 204.96) scale(0.01100 -0.01100)"/><use href="#f4-l" transform="translate(64.60 204.96) scale(0.01100 -0.01100)"/><use href="#f4-u" transform="translate(71.20 204.96) scale(0.01100 -0.01100)"/><use href="#f4-t" transform="translate(77.80 204.96) scale(0.01100 -0.01100)"/><use href="#f4-t" transform="translate(84.40 204.96) scale(0.01100 -0.01100)"/><use href="#f4-e" transform="translate(91.00 204.96) scale(0.01100 -0.01100)"/><use href="#f4-r" transform="translate(97.60 204.96) scale(0.01100 -0.01100)"/></g><rect x="126.2" y="188.0" width="120.4" height="26" rx="13.0" fill="none" stroke="#30363d"/><g fill="#9198a1" ><use href="#f4-L" transform="translate(140.20 204.96) scale(0.01100 -0.01100)"/><use href="#f4-a" transform="translate(146.80 204.96) scale(0.01100 -0.01100)"/><use href="#f4-r" transform="translate(153.40 204.96) scale(0.01100 -0.01100)"/><use href="#f4-a" transform="translate(160.00 204.96) scale(0.01100 -0.01100)"/><use href="#f4-v" transform="translate(166.60 204.96) scale(0.01100 -0.01100)"/><use href="#f4-e" transform="translate(173.20 204.96) scale(0.01100 -0.01100)"/><use href="#f4-l" transform="translate(179.80 204.96) scale(0.01100 -0.01100)"/><use href="#f4-R" transform="translate(193.00 204.96) scale(0.01100 -0.01100)"/><use href="#f4-e" transform="translate(199.60 204.96) scale(0.01100 -0.01100)"/><use href="#f4-v" transform="translate(206.20 204.96) scale(0.01100 -0.01100)"/><use href="#f4-e" transform="translate(212.80 204.96) scale(0.01100 -0.01100)"/><use href="#f4-r" transform="translate(219.40 204.96) scale(0.01100 -0.01100)"/><use href="#f4-b" transform="translate(226.00 204.96) scale(0.01100 -0.01100)"/></g><rect x="254.6" y="188.0" width="67.6" height="26" rx="13.0" fill="none" stroke="#30363d"/><g fill="#9198a1" ><use href="#f4-W" transform="translate(268.60 204.96) scale(0.01100 -0.01100)"/><use href="#f4-e" transform="translate(275.20 204.96) scale(0.01100 -0.01100)"/><use href="#f4-b" transform="translate(281.80 204.96) scale(0.01100 -0.01100)"/><use href="#f4-R" transform="translate(288.40 204.96) scale(0.01100 -0.01100)"/><use href="#f4-T" transform="translate(295.00 204.96) scale(0.01100 -0.01100)"/><use href="#f4-C" transform="translate(301.60 204.96) scale(0.01100 -0.01100)"/></g><rect x="330.2" y="188.0" width="54.4" height="26" rx="13.0" fill="none" stroke="#30363d"/><g fill="#9198a1" ><use href="#f4-H" transform="translate(344.20 204.96) scale(0.01100 -0.01100)"/><use href="#f4-i" transform="translate(350.80 204.96) scale(0.01100 -0.01100)"/><use href="#f4-v" transform="translate(357.40 204.96) scale(0.01100 -0.01100)"/><use href="#f4-e" transform="translate(364.00 204.96) scale(0.01100 -0.01100)"/></g><line x1="44" y1="231" x2="816" y2="231" stroke="#21262d"/></svg>