<svg xmlns="http://www.w3.org/2000/svg" xmlns:xlink="http://www.w3.org/1999/xlink" width="109" height="34" viewBox="0 0 109 34" role="img" aria-label="02 · WORK"><title>02 · WORK</title><defs><path id="f5-zero" d="M300 -12Q234 -12 185.5 12.5Q137 37 105.5 83.0Q74 129 59.0 196.0Q44 263 44 349Q44 434 59.0 501.5Q74 569 105.5 615.0Q137 661 185.5 685.5Q234 710 300 710Q366 710 414.5 685.5Q463 661 494.5 615.0Q526 569 541.0 501.5Q556 434 556 349Q556 263 541.0 196.0Q526 129 494.5 83.0Q463 37 414.5 12.5Q366 -12 300 -12ZM300 80Q376 80 408.5 136.5Q441 193 441 289V409Q441 505 408.5 561.5Q376 618 300 618Q262 618 235.0 603.5Q208 589 191.0 561.5Q174 534 166.5 495.5Q159 457 159 409V289Q159 241 166.5 202.5Q174 164 191.0 136.5Q208 109 235.0 94.5Q262 80 300 80ZM300 290Q265 290 251.5 304.0Q238 318 238 338V360Q238 380 251.5 394.0Q265 408 300 408Q335 408 348.5 394.0Q362 380 362 360V338Q362 318 348.5 304.0Q335 290 300 290Z"/><path id="f5-two" d="M545 0H63V107L291 306Q345 354 374.5 397.0Q404 440 404 488V499Q404 554 374.0 583.5Q344 613 287 613Q229 613 197.5 582.0Q166 551 152 503L54 540Q64 573 83.0 603.5Q102 634 131.5 658.0Q161 682 201.5 696.0Q242 710 295 710Q349 710 391.5 694.5Q434 679 463.0 652.0Q492 625 507.0 587.5Q522 550 522 505Q522 463 509.5 427.5Q497 392 474.5 359.5Q452 327 421.0 297.0Q390 267 353 237L184 95H545Z"/><path id="f5-periodcentered" d="M300 222Q252 222 232.5 242.0Q213 262 213 291V317Q213 346 232.5 366.0Q252 386 300 386Q348 386 367.5 366.0Q387 346 387 317V291Q387 262 367.5 242.0Q348 222 300 222Z"/><path id="f5-W" d="M75 0 25 698H123L148 292L159 113H167L246 529H357L436 113H444L455 292L481 698H575L525 0H375L304 404H296L225 0Z"/><path id="f5-O" d="M300 -12Q234 -12 185.5 12.5Q137 37 105.5 83.0Q74 129 59.0 196.0Q44 263 44 349Q44 434 59.0 501.5Q74 569 105.5 615.0Q137 661 185.5 685.5Q234 710 300 710Q366 710 414.5 685.5Q463 661 494.5 615.0Q526 569 541.0 501.5Q556 434 556 349Q556 263 541.0 196.0Q526 129 494.5 83.0Q463 37 414.5 12.5Q366 -12 300 -12ZM300 81Q375 81 406.0 137.5Q437 194 437 291V408Q437 504 406.0 560.5Q375 617 300 617Q225 617 194.0 560.5Q163 504 163 408V290Q163 194 194.0 137.5Q225 81 300 81Z"/><path id="f5-R" d="M195 0H84V698H345Q445 698 497.5 642.0Q550 586 550 488Q550 408 511.0 356.0Q472 304 399 292L560 0H436L288 282H195ZM329 372Q433 372 433 467V510Q433 605 329 605H195V372Z"/><path id="f5-K" d="M274 321 190 216V0H78V698H190V364H195L280 480L451 698H580L350 404L589 0H461Z"/><style></style></defs><rect x="0.5" y="0.5" width="108" height="33" rx="16.5" fill="#faf9f7" stroke="#dfdcd6"/><g fill="#646972" ><use href="#f5-zero" transform="translate(17.00 21.00) scale(0.01100 -0.01100)"/><use href="#f5-two" transform="translate(25.60 21.00) scale(0.01100 -0.01100)"/><use href="#f5-periodcentered" transform="translate(42.80 21.00) scale(0.01100 -0.01100)"/><use href="#f5-W" transform="translate(60.00 21.00) scale(0.01100 -0.01100)"/><use href="#f5-O" transform="translate(68.60 21.00) scale(0.01100 -0.01100)"/><use href="#f5-R" transform="translate(77.20 21.00) scale(0.01100 -0.01100)"/><use href="#f5-K" transform="translate(85.80 21.00) scale(0.01100 -0.01100)"/></g></svg>