<svg xmlns="http://www.w3.org/2000/svg" width="490" height="509" viewBox="0 0 490 509" role="img" aria-label="STREAMS: Field-service platform for dispatch, GPS tracking, reporting, client sign-off, and billing."><title>STREAMS: Field-service platform for dispatch, GPS tracking, reporting, client sign-off, and billing.</title><defs><style>.s{font-family:-apple-system, BlinkMacSystemFont, 'SF Pro Display', 'Helvetica Neue', 'Segoe UI', Helvetica, Arial, sans-serif}.m{font-family:'SF Mono', SFMono-Regular, Menlo, Monaco, Consolas, 'Liberation Mono', monospace}</style><linearGradient id="g-intel" x1="0" y1="0" x2="1" y2="0"><stop offset="0.00" stop-color="#0894FF"/><stop offset="0.33" stop-color="#C959DD"/><stop offset="0.67" stop-color="#FF2E54"/><stop offset="1.00" stop-color="#FF9004"/></linearGradient><linearGradient id="g-blue" x1="0" y1="0" x2="1" y2="0"><stop offset="0.00" stop-color="#0A84FF"/><stop offset="1.00" stop-color="#5E5CE6"/></linearGradient><linearGradient id="g-sunset" x1="0" y1="0" x2="1" y2="0"><stop offset="0.00" stop-color="#FF6B00"/><stop offset="1.00" stop-color="#FF2D55"/></linearGradient><linearGradient id="g-mint" x1="0" y1="0" x2="1" y2="0"><stop offset="0.00" stop-color="#00B37E"/><stop offset="1.00" stop-color="#0A84FF"/></linearGradient><linearGradient id="g-violet" x1="0" y1="0" x2="1" y2="0"><stop offset="0.00" stop-color="#AF52DE"/><stop offset="1.00" stop-color="#FF2D55"/></linearGradient><linearGradient id="g-gold" x1="0" y1="0" x2="1" y2="0"><stop offset="0.00" stop-color="#FF9500"/><stop offset="1.00" stop-color="#FF3B30"/></linearGradient><linearGradient id="g-teal" x1="0" y1="0" x2="1" y2="0"><stop offset="0.00" stop-color="#30B0C7"/><stop offset="1.00" stop-color="#5E5CE6"/></linearGradient><linearGradient id="streams-bg" x1="0" y1="0" x2="1" y2="1"><stop offset="0.00" stop-color="#0B1E4A"/><stop offset="1.00" stop-color="#2A0E4F"/></linearGradient><pattern id="dots" width="22" height="22" patternUnits="userSpaceOnUse"><circle cx="2" cy="2" r="1.3" fill="#FFFFFF" fill-opacity="0.14"/></pattern><clipPath id="clip"><rect width="490" height="509" rx="28"/></clipPath></defs><g clip-path="url(#clip)"><rect width="490" height="509" fill="#F5F5F7"/><rect x="0" y="0" width="490" height="276" fill="url(#streams-bg)"/><rect x="0" y="0" width="490" height="276" fill="url(#dots)"/><path d="M39 199 Q83 199 127 116 Q174 116 220 166 Q265 166 309 83 Q355 83 402 138 Q431 138 461 61" fill="none" stroke="url(#g-intel)" stroke-width="3" stroke-linecap="round" stroke-dasharray="8 10"><animate attributeName="stroke-dashoffset" from="0" to="-180" dur="4s" repeatCount="indefinite"/></path><circle cx="39" cy="199" r="14" fill="#0894FF" opacity="0.25"><animate attributeName="r" values="8;18;8" dur="2.4s" begin="0.0s" repeatCount="indefinite"/></circle><circle cx="39" cy="199" r="6" fill="#0894FF" stroke="#fff" stroke-width="2"/><circle cx="127" cy="116" r="14" fill="#C959DD" opacity="0.25"><animate attributeName="r" values="8;18;8" dur="2.4s" begin="0.4s" repeatCount="indefinite"/></circle><circle cx="127" cy="116" r="6" fill="#C959DD" stroke="#fff" stroke-width="2"/><circle cx="220" cy="166" r="14" fill="#FF2E54" opacity="0.25"><animate attributeName="r" values="8;18;8" dur="2.4s" begin="0.8s" repeatCount="indefinite"/></circle><circle cx="220" cy="166" r="6" fill="#FF2E54" stroke="#fff" stroke-width="2"/><circle cx="309" cy="83" r="14" fill="#FF9004" opacity="0.25"><animate attributeName="r" values="8;18;8" dur="2.4s" begin="1.2000000000000002s" repeatCount="indefinite"/></circle><circle cx="309" cy="83" r="6" fill="#FF9004" stroke="#fff" stroke-width="2"/><circle cx="402" cy="138" r="14" fill="#0894FF" opacity="0.25"><animate attributeName="r" values="8;18;8" dur="2.4s" begin="1.6s" repeatCount="indefinite"/></circle><circle cx="402" cy="138" r="6" fill="#0894FF" stroke="#fff" stroke-width="2"/><circle cx="461" cy="61" r="14" fill="#C959DD" opacity="0.25"><animate attributeName="r" values="8;18;8" dur="2.4s" begin="2.0s" repeatCount="indefinite"/></circle><circle cx="461" cy="61" r="6" fill="#C959DD" stroke="#fff" stroke-width="2"/><rect x="24" y="206" width="137" height="50" rx="14" fill="#FFFFFF" fill-opacity="0.1" stroke="#FFFFFF" stroke-opacity="0.18"/><text class="s" x="38.0" y="238.0" font-size="20" font-weight="700" fill="#FFFFFF" text-anchor="start" letter-spacing="0">~190</text><text class="s" x="97.0" y="237.0" font-size="13" font-weight="500" fill="#D1D1D6" text-anchor="start" letter-spacing="0">endpoints</text><rect x="171" y="206" width="137" height="50" rx="14" fill="#FFFFFF" fill-opacity="0.1" stroke="#FFFFFF" stroke-opacity="0.18"/><text class="s" x="185.3" y="238.0" font-size="20" font-weight="700" fill="#FFFFFF" text-anchor="start" letter-spacing="0">12</text><text class="s" x="218.9" y="237.0" font-size="13" font-weight="500" fill="#D1D1D6" text-anchor="start" letter-spacing="0">role types</text><rect x="319" y="206" width="137" height="50" rx="14" fill="#FFFFFF" fill-opacity="0.1" stroke="#FFFFFF" stroke-opacity="0.18"/><text class="s" x="332.7" y="238.0" font-size="20" font-weight="700" fill="#FFFFFF" text-anchor="start" letter-spacing="0">9</text><text class="s" x="352.4" y="237.0" font-size="13" font-weight="500" fill="#D1D1D6" text-anchor="start" letter-spacing="0">services</text></g><rect x="0.5" y="0.5" width="489" height="508" rx="28" fill="none" stroke="#E3E3E8"/><text class="s" x="28.0" y="318.0" font-size="13" font-weight="600" fill="#6E6E73" text-anchor="start" letter-spacing="0.4">MEC NETWORKS  ·  4-PERSON TEAM</text><text class="s" x="27.0" y="358.0" font-size="30" font-weight="700" fill="#1D1D1F" text-anchor="start" letter-spacing="-0.8">STREAMS</text><text class="s" x="28.0" y="382.6" font-size="17" font-weight="400" fill="#6E6E73" text-anchor="start" letter-spacing="0">Field-service platform for dispatch, GPS tracking,</text><text class="s" x="28.0" y="407.3" font-size="17" font-weight="400" fill="#6E6E73" text-anchor="start" letter-spacing="0">reporting, client sign-off, and billing.</text><rect x="28.0" y="427.3" width="94.9" height="28" rx="14.0" fill="#FFFFFF" stroke="#E3E3E8"/><text class="s" x="75.5" y="446.0" font-size="13" font-weight="500" fill="#1D1D1F" text-anchor="middle" letter-spacing="0">Laravel 12</text><rect x="130.9" y="427.3" width="80.6" height="28" rx="14.0" fill="#FFFFFF" stroke="#E3E3E8"/><text class="s" x="171.2" y="446.0" font-size="13" font-weight="500" fill="#1D1D1F" text-anchor="middle" letter-spacing="0">React 19</text><rect x="219.5" y="427.3" width="67.6" height="28" rx="14.0" fill="#FFFFFF" stroke="#E3E3E8"/><text class="s" x="253.3" y="446.0" font-size="13" font-weight="500" fill="#1D1D1F" text-anchor="middle" letter-spacing="0">Flutter</text><rect x="295.1" y="427.3" width="70.2" height="28" rx="14.0" fill="#FFFFFF" stroke="#E3E3E8"/><text class="s" x="330.2" y="446.0" font-size="13" font-weight="500" fill="#1D1D1F" text-anchor="middle" letter-spacing="0">Reverb</text><rect x="373.3" y="427.3" width="59.8" height="28" rx="14.0" fill="#FFFFFF" stroke="#E3E3E8"/><text class="s" x="403.2" y="446.0" font-size="13" font-weight="500" fill="#1D1D1F" text-anchor="middle" letter-spacing="0">Redis</text><text class="s" x="462.0" y="485.3" font-size="15" font-weight="600" fill="#0071E3" text-anchor="end" letter-spacing="0">Case study ↓</text></svg>